<?xml version="1.0" encoding="iso-8859-1"?>
<!DOCTYPE svg PUBLIC "-//W3C//DTD SVG 1.0//EN" "http://www.w3.org/TR/2001/REC-SVG-20010904/DTD/svg10.dtd">
<!-- Creator: CorelDRAW -->
<svg xmlns="http://www.w3.org/2000/svg" xmlns:odm="http://product.corel.com/CGS/11/cddns/" xml:space="preserve" width="0.393701in" height="0.393701in" shape-rendering="geometricPrecision" text-rendering="geometricPrecision" image-rendering="optimizeQuality" fill-rule="evenodd"
     viewBox="0 0 394 394">
 <g id="Ñëîé 1">
  <path fill="#7E8387" d="M40 192l0 -132 22 0 0 132c21,5 36,24 36,46 0,23 -15,41 -36,46l0 52 -22 0 0 -51c-21,-5 -37,-24 -37,-47 0,-22 16,-41 37,-46zm161 12l0 132 -22 0 0 -132c-21,-5 -36,-24 -36,-46 0,-23 15,-41 36,-46l0 -52 22 0 0 51c21,5 37,24 37,47 0,22 -16,41 -37,46zm-10 -20c-15,0 -26,-12 -26,-26 0,-15 11,-26 26,-26 14,0 26,11 26,26 0,14 -12,26 -26,26zm144 8l0 -132 22 0 0 132c20,5 36,24 36,46 0,23 -16,41 -36,46l0 52 -22 0 0 -51c-22,-5 -37,-24 -37,-47 0,-22 16,-41 37,-46zm10 20c14,0 26,12 26,26 0,15 -12,26 -26,26 -14,0 -26,-11 -26,-26 0,-14 12,-26 26,-26zm-295 0c15,0 27,12 27,26 0,15 -12,26 -27,26 -14,0 -26,-11 -26,-26 0,-14 12,-26 26,-26z"/>
 </g>
</svg>
