<svg xmlns="http://www.w3.org/2000/svg" viewBox="0 0 1000 1000">
    <path fill="#949494" d="M394.1 447.1H63c-29.2 0-53-23.7-53-52.9V63.5c0-29.2 23.8-52.9 53-52.9h331.1c29.2 0 53 23.7 53 52.9v330.7c-.1 29.2-23.8 52.9-53 52.9zM63 63.5v330.7h331.1V63.5H63zm874 383.6H605.9c-29.2 0-53-23.7-53-52.9V63.5c0-29.2 23.8-52.9 53-52.9H937c29.2 0 53 23.7 53 52.9v330.7c0 29.2-23.8 52.9-53 52.9zM605.9 63.5v330.7H937V63.5H605.9zm-211.8 926H63c-29.2 0-53-23.7-53-52.9V605.8c0-29.2 23.8-52.9 53-52.9h331.1c29.2 0 53 23.7 53 52.9v330.7c-.1 29.2-23.8 53-53 53zM63 605.8v330.7h331.1l-.1-330.7H63zm874 383.7H605.9c-29.2 0-53-23.7-53-52.9V605.8c0-29.2 23.8-52.9 53-52.9H937c29.2 0 53 23.7 53 52.9v330.7c0 29.2-23.8 53-53 53zM605.9 605.8v330.7H937V605.8H605.9z"/>
</svg>
