<?xml version="1.0" encoding="UTF-8" standalone="no"?>
<svg
   xmlns:dc="http://purl.org/dc/elements/1.1/"
   xmlns:cc="http://creativecommons.org/ns#"
   xmlns:rdf="http://www.w3.org/1999/02/22-rdf-syntax-ns#"
   xmlns:svg="http://www.w3.org/2000/svg"
   xmlns="http://www.w3.org/2000/svg"
   xmlns:sodipodi="http://sodipodi.sourceforge.net/DTD/sodipodi-0.dtd"
   xmlns:inkscape="http://www.inkscape.org/namespaces/inkscape"
   inkscape:version="1.0 (4035a4fb49, 2020-05-01)"
   height="16.4"
   width="173.29999"
   sodipodi:docname="img-14.svg"
   version="1.1"
   viewBox="0 0 173.29999 16.4"
   id="Layer_1">
  <metadata
     id="metadata42">
    <rdf:RDF>
      <cc:Work
         rdf:about="">
        <dc:format>image/svg+xml</dc:format>
        <dc:type
           rdf:resource="http://purl.org/dc/dcmitype/StillImage" />
        <dc:title></dc:title>
      </cc:Work>
    </rdf:RDF>
  </metadata>
  <defs
     id="defs40" />
  <sodipodi:namedview
     inkscape:current-layer="Layer_1"
     inkscape:window-maximized="1"
     inkscape:window-y="-8"
     inkscape:window-x="-8"
     inkscape:cy="7.8"
     inkscape:cx="86.7"
     inkscape:zoom="7.18"
     fit-margin-bottom="0"
     fit-margin-right="0"
     fit-margin-left="0"
     fit-margin-top="0"
     showgrid="false"
     id="namedview38"
     inkscape:window-height="1017"
     inkscape:window-width="1920"
     inkscape:pageshadow="2"
     inkscape:pageopacity="0"
     guidetolerance="10"
     gridtolerance="10"
     objecttolerance="10"
     borderopacity="1"
     bordercolor="#666666"
     pagecolor="#ffffff" />
  <style
     id="style2">.st0{fill:#003a23}.st2{fill:#fff}</style>
  <g
     transform="translate(-13.3,-17.2)"
     id="Page-1">
    <g
       id="logo_avangardrus">
      <path
         d="M 13.3,31.8 V 17.2 H 23.6 V 19 h -5.7 v 4.4 h 2.3 c 1.1,0 4.4,-0.1 4.4,2 v 4.5 c 0,1.7 -2.6,2 -4.4,2 z M 17.9,25 v 5 h 1.7 c 0.2,0 0.4,-0.1 0.4,-0.5 v -4 C 20,25.2 19.9,25 19.6,25 Z"
         class="st0"
         id="Fill-1" />
      <path
         d="m 26.5,31.8 3.3,-14.6 h 6.8 L 40,31.8 H 35.5 L 34.8,28.1 H 31.6 L 31,31.8 Z M 33.2,19.3 32,26.1 h 2.7 l -1.2,-6.8 z"
         class="st0"
         id="Fill-2" />
      <path
         d="m 42.3,17.2 h 4.5 v 5.9 L 48.9,23 v -5.8 h 4.5 v 14.6 h -4.5 v -6.7 h -2.1 v 6.7 H 42.3 V 17.2"
         class="st0"
         id="Fill-3" />
      <path
         d="m 56.8,17.2 h 4.4 v 5.9 l 2.9,-5.9 h 4.3 l -3.3,6.8 3.8,7.8 h -4.2 l -3.5,-6.6 v 6.6 H 56.8 V 17.2"
         class="st0"
         id="Fill-4" />
      <path
         d="M 78.8,31.8 82.1,17.2 H 89 l 3.3,14.6 H 87.8 L 87.1,28.1 H 84 l -0.7,3.7 z M 85.5,19.2 84.2,26 h 2.7 l -1.2,-6.8 z"
         class="st0"
         id="Fill-5" />
      <path
         d="m 107,31.8 3.3,-14.6 h 6.8 l 3.3,14.6 H 116 l -0.7,-3.7 h -3.2 l -0.7,3.7 z m 6.6,-12.5 -1.2,6.8 h 2.7 l -1.2,-6.8 z"
         class="st0"
         id="Fill-6" />
      <path
         d="M 145.7,31.8 149,17.2 h 6.8 l 3.4,14.6 h -4.5 L 154,28.1 h -3.2 l -0.7,3.7 z m 6.6,-12.5 -1.2,6.8 h 2.7 l -1.2,-6.7 h -0.3 z"
         class="st0"
         id="Fill-7" />
      <path
         d="m 127.4,17.2 v 5.9 h 2.1 v -5.9 h 4.5 v 14.6 h -4.5 v -6.7 h -2.1 v 6.7 h -4.5 V 17.2 h 4.5"
         class="st0"
         id="Fill-8" />
      <path
         d="m 98.9,18.9 v 4.2 h 1.5 c 0.4,0 0.5,-0.1 0.5,-0.3 v -3.5 c 0,-0.2 -0.1,-0.4 -0.5,-0.4 z M 94.6,31.8 V 17.2 h 6.5 c 4.4,0 4.2,1.5 4.2,2.1 v 3 c 0,0.4 -0.1,1.8 -2.5,1.7 v 0.1 c 1.9,0 2.6,0.6 2.6,1.5 v 4 c 0,0.7 -0.3,2 -4.3,2 h -6.5 z m 4.3,-6.7 V 30 h 1.6 c 0.3,0 0.5,-0.2 0.5,-0.4 v -3.9 c 0,-0.3 -0.1,-0.5 -0.5,-0.5 h -1.6 z"
         class="st0"
         id="Fill-9" />
      <path
         d="m 137.8,17.2 h 8.9 v 1.7 h -4.5 v 12.9 h -4.4 V 17.2"
         class="st0"
         id="Fill-10" />
      <g
         transform="translate(625)"
         id="Group-14">
        <defs
           id="defs17">
          <filter
             height="14.6"
             width="10.9"
             y="17.200001"
             x="-463.79999"
             filterUnits="userSpaceOnUse"
             id="Adobe_OpacityMaskFilter">
            <feColorMatrix
               id="feColorMatrix14"
               values="1 0 0 0 0 0 1 0 0 0 0 0 1 0 0 0 0 0 1 0" />
          </filter>
        </defs>
        <mask
           id="mask-2_1_"
           height="14.6"
           width="10.9"
           y="17.2"
           x="-463.8"
           maskUnits="userSpaceOnUse">
          <g
             id="g20"
             filter="url(#Adobe_OpacityMaskFilter)">
            <path
               d="m -463.8,17.2 h 25.5 v 16.4 h -25.5 z"
               class="st2"
               id="path-1_1_" />
          </g>
        </mask>
        <path
           fill="#003a23"
           mask="url(#mask-2_1_)"
           d="M -463.8,31.8 V 17.2 h 6.8 c 1.5,0 4,0 4,2.1 v 5 c 0,2.2 -2.4,2.2 -4,2.3 h -2.4 v 5.2 z m 4.4,-12.9 v 5.9 h 1.9 c 0.8,0.1 0.8,-0.3 0.8,-0.6 v -4.8 c 0,-0.5 -0.5,-0.6 -0.8,-0.5 z"
           id="Fill-11" />
        <defs
           id="defs27">
          <filter
             height="16.4"
             width="14.2"
             y="17.200001"
             x="-452.60001"
             filterUnits="userSpaceOnUse"
             id="Adobe_OpacityMaskFilter_1_">
            <feColorMatrix
               id="feColorMatrix24"
               values="1 0 0 0 0 0 1 0 0 0 0 0 1 0 0 0 0 0 1 0" />
          </filter>
        </defs>
        <mask
           id="mask-2_2_"
           height="16.4"
           width="14.2"
           y="17.2"
           x="-452.6"
           maskUnits="userSpaceOnUse">
          <g
             id="g30"
             filter="url(#Adobe_OpacityMaskFilter_1_)">
            <path
               d="m -463.8,17.2 h 25.5 v 16.4 h -25.5 z"
               class="st2"
               id="path-1_2_" />
          </g>
        </mask>
        <path
           fill="#003a23"
           mask="url(#mask-2_2_)"
           d="m -452.6,33.6 v -3.4 h 0.3 c 1.9,0 2.1,-1 2.1,-1.5 V 17.2 h 10.7 v 12.9 h 1.1 v 3.5 h -4.4 v -1.8 h -5.5 v 1.8 z m 9.4,-14.7 h -2.6 v 9.6 c 0,0.7 -0.2,1.4 -0.9,1.6 h 3.5 z"
           id="Fill-13" />
      </g>
    </g>
  </g>
</svg>
