<svg xmlns="http://www.w3.org/2000/svg" width="142" height="116">
    <path d="M0 0v116h142V0H0z" fill="#fff"/>
    <path d="M55 22c1.769.779 3.036.912 5 1-1.77-.779-3.036-.912-5-1z" fill="#e1e1e1"/>
    <path d="M51.667 23.333c-.445.445.61.39.666.334.445-.445-.61-.39-.666-.334z" fill="#b7b7b7"/>
    <path d="M9 35v12h19c3.087 0 6.974-.584 9.896.603 2.857 1.162 4.2 4.13 6.313 6.184 3.37 3.276 8.103 5.117 12.791 5.133 4.877.018 9.39-1.615 12.896-5.028 2.318-2.257 3.894-5.658 7.208-6.574C82.162 45.92 88.775 47 94 47h36V35H94c-5.225 0-11.838 1.08-16.896-.318-3.311-.915-4.896-4.316-7.208-6.575-3.572-3.49-7.914-5.166-12.896-5.052-4.708.107-9.39 1.852-12.79 5.158-2.114 2.054-3.457 5.022-6.314 6.184C34.974 35.584 31.086 35 28 35H9z" fill="#949494"/>
    <path d="M49 24l1 1-1-1z" fill="silver"/>
    <path d="M47 25l1 1-1-1z" fill="#c9c9c9"/>
    <path d="M69 27l1 1-1-1z" fill="#c8c8c8"/>
    <path d="M70 28l1 1-1-1z" fill="#c7c7c7"/>
    <path d="M71 29l1 1-1-1z" fill="#d2d2d2"/>
    <path d="M41 31l1 1-1-1z" fill="#d1d1d1"/>
    <path d="M40 33l1 1-1-1z" fill="#cdcdcd"/>
    <path d="M8 34c3.699 1.552 8.017 1 12 1h20c-3.699-1.552-8.017-1-12-1H8m66 0c5.216 2.189 12.38 1 18 1h38v12c1.661-3.959 1-8.737 1-13H74z" fill="#f0f0f0"/>
    <path d="M8 35v12c1.512-3.604 1.512-8.396 0-12z" fill="#cecece"/>
    <path d="M54.148 36.032c-6.325 3.614-.553 13.087 5.704 9.749 6.49-3.462.63-13.367-5.704-9.749z" fill="#fff"/>
    <path d="M63.333 40.667c-.055.055-.11 1.11.334.666.055-.055.11-1.11-.334-.666z" fill="#aeaeae"/>
    <path d="M54.667 46.333c-.445.445.61.39.666.334.445-.445-.61-.39-.666-.334z" fill="#e7e7e7"/>
    <path d="M59 46l1 1-1-1z" fill="#d1d1d1"/>
    <path d="M40 48l1 1-1-1z" fill="#d2d2d2"/>
    <path d="M70 53l1 1-1-1z" fill="#cfcfcf"/>
    <path d="M69 54l1 1-1-1z" fill="#d1d1d1"/>
    <path d="M47 56l1 1-1-1z" fill="#d2d2d2"/>
    <path d="M49 57l1 1-1-1z" fill="#cbcbcb"/>
    <path d="M51.667 58.333c-.445.445.61.39.666.334.445-.445-.61-.39-.666-.334z" fill="#c2c2c2"/>
    <path d="M61.667 58.333c-.445.445.61.39.666.334.445-.445-.61-.39-.666-.334z" fill="#d4d4d4"/>
    <path d="M55 59c1.506.683 2.315.826 4 1-1.506-.683-2.315-.826-4-1z" fill="#ececec"/>
    <path d="M89.667 59.333c-.445.445.61.39.666.334.445-.445-.61-.39-.666-.334z" fill="#c6c6c6"/>
    <path d="M91 59c1.769.779 3.036.912 5 1-1.769-.779-3.036-.912-5-1z" fill="#aaa"/>
    <path d="M96.667 59.333c-.445.445.61.39.666.334.445-.445-.61-.39-.666-.334z" fill="#d3d3d3"/>
    <path d="M9 72v11h42c6.773 0 14.294-.92 20.985.148 4.5.719 6.137 4.68 9.2 7.523 3.458 3.211 7.2 4.284 11.815 4.324 4.958.043 9.132-.722 12.896-4.209 2.221-2.057 3.656-5.216 6.313-6.758C116.69 81.426 124.955 83 130 83V72c-5.045 0-13.31 1.574-17.791-1.028-2.657-1.542-4.092-4.7-6.313-6.758-3.765-3.488-7.937-4.25-12.896-4.21-4.605.04-8.428.997-11.896 4.21-3.064 2.838-4.617 6.916-9.12 7.638C65.297 72.924 57.772 72 51 72H9z" fill="#949494"/>
    <path d="M102 61l1 1-1-1z" fill="#c6c6c6"/>
    <path d="M105 63l1 1-1-1z" fill="#cdcdcd"/>
    <path d="M106 64l1 1-1-1z" fill="#c6c6c6"/>
    <path d="M107 65l1 1-1-1z" fill="#cccccb"/>
    <path d="M109 68l1 1-1-1z" fill="#c2c2c2"/>
    <path d="M110 70l1 1-1-1z" fill="#c5c5c5"/>
    <path d="M8 71v13h68c-5.951-2.497-14.58-1-21-1H9c0-3.983.552-8.302-1-12z" fill="#c8c8c8"/>
    <path d="M9 71c5.951 2.497 14.58 1 21 1h46c-5.951-2.497-14.58-1-21-1H9z" fill="#bababa"/>
    <path d="M92 71c1.506.683 2.315.826 4 1-1.506-.683-2.315-.826-4-1z" fill="#d9d9d9"/>
    <path d="M111 71c5.469 2.295 13.099 1 19 1-5.469-2.295-13.099-1-19-1z" fill="#bababa"/>
    <path d="M130 71v13c1.591-3.791 1.591-9.209 0-13z" fill="#ededed"/>
    <path d="M90.318 73.028c-5.635 3.719.65 12.658 6.364 8.94 5.765-3.75-.462-12.835-6.364-8.94z" fill="#fff"/>
    <path d="M99 75v5c.83-2.03.83-2.97 0-5z" fill="#ddd"/>
    <path d="M87 76v3c.696-1.554.696-1.446 0-3z" fill="#bfbfbf"/>
    <path d="M88 80l1 1-1-1z" fill="#d0d0d0"/>
    <path d="M90 82l1 1-1-1z" fill="#d4d4d4"/>
    <path d="M92 83c1.248.685 1.548.749 3 1-1.248-.685-1.548-.749-3-1z" fill="#cbcbcb"/>
    <path d="M111 83c5.469 2.295 13.099 1 19 1-5.469-2.295-13.099-1-19-1z" fill="#c8c8c8"/>
    <path d="M110 84l1 1-1-1z" fill="#cacaca"/>
    <path d="M109 86l1 1-1-1z" fill="#c9c9c9"/>
    <path d="M78 87l1 1-1-1z" fill="#c6c6c6"/>
    <path d="M106 90l1 1-1-1z" fill="#d1d1d1"/>
    <path d="M83 92l1 1-1-1z" fill="#c3c3c3"/>
    <path d="M102 93l1 1-1-1z" fill="#d3d3d3"/>
    <path d="M90 95c2.052.874 3.747.953 6 1-2.052-.874-3.747-.953-6-1z" fill="#b7b7b7"/>
    <path d="M96.667 95.333c-.445.445.61.39.666.334.445-.445-.61-.39-.666-.334z" fill="#e2e2e2"/>
</svg>
