<svg xmlns="http://www.w3.org/2000/svg" width="37.795" height="37.795" shape-rendering="geometricPrecision" text-rendering="geometricPrecision" image-rendering="optimizeQuality" fill-rule="evenodd" viewBox="0 0 394 394">
    <path fill="#7E8387" d="M196 12c104 0 188 85 188 188 0 25-5 49-14 71l-17-11c7-18 11-39 11-60 0-92-75-168-168-168-2 0-5 0-8 1l-9-20c6-1 12-1 17-1zm87 356C170 303 99 238 65 103c-1-13-1-26-2-38 11-27 37-41 59-60 31 3 59 59 64 90-15 18-38 20-57 33-12 36 57 136 121 158 5-8 28-50 41-48 36 8 74 66 73 80-5 6-11 11-16 17-11 9-21 17-31 26-7 2-14 5-20 7h-14zm-26 10c-19 7-40 10-61 10C93 388 9 303 9 200c0-39 12-76 33-106 3 9 6 16 8 24-14 25-21 52-21 82 0 93 75 168 167 168 15 0 28-2 42-5l19 15z"/>
</svg>
